<?xml version="1.0" encoding="utf-8"?>
<!-- Generator: Adobe Illustrator 16.0.0, SVG Export Plug-In . SVG Version: 6.00 Build 0)  -->
<!DOCTYPE svg PUBLIC "-//W3C//DTD SVG 1.1//EN" "http://www.w3.org/Graphics/SVG/1.1/DTD/svg11.dtd">
<svg version="1.1" id="Layer_1" xmlns="http://www.w3.org/2000/svg" xmlns:xlink="http://www.w3.org/1999/xlink" x="0px" y="0px"
	 width="612px" height="792px" viewBox="0 0 612 792" enable-background="new 0 0 612 792" xml:space="preserve">
<g opacity="0.5">
	<path fill="#C18748" d="M164.25,160.5c-3.722,0-6.75-3.028-6.75-6.75s3.028-6.75,6.75-6.75s6.75,3.028,6.75,6.75
		S167.972,160.5,164.25,160.5z"/>
	<path fill="#FDB515" d="M164.25,148.5c2.899,0,5.25,2.351,5.25,5.25s-2.351,5.25-5.25,5.25s-5.25-2.351-5.25-5.25
		S161.351,148.5,164.25,148.5 M164.25,145.5c-4.549,0-8.25,3.701-8.25,8.25s3.701,8.25,8.25,8.25s8.25-3.701,8.25-8.25
		S168.799,145.5,164.25,145.5L164.25,145.5z"/>
</g>
</svg>
